<?xml version="1.0" encoding="utf-8"?>
<!-- Generator: Adobe Illustrator 19.2.1, SVG Export Plug-In . SVG Version: 6.00 Build 0)  -->
<svg version="1.1"
	 id="svg2" xmlns:cc="http://creativecommons.org/ns#" xmlns:dc="http://purl.org/dc/elements/1.1/" xmlns:rdf="http://www.w3.org/1999/02/22-rdf-syntax-ns#" xmlns:svg="http://www.w3.org/2000/svg"
	 xmlns="http://www.w3.org/2000/svg" xmlns:xlink="http://www.w3.org/1999/xlink" x="0px" y="0px" viewBox="0 0 256 256"
	 style="enable-background:new 0 0 256 256;" xml:space="preserve">
<g id="weather">
	<path id="path4142-5" style="fill:#A6A6A6;" d="M128,70.4c-13.8,0-24.6,11.1-24.9,24.6c-1.2,0-2.4,0-3.6,0
		c-13.8,0-24.9,11.1-24.9,24.9c0,13.8,11.1,24.9,24.9,24.9l0,0h57.9l0,0c13.2-0.6,23.7-11.4,23.7-24.9c0-13.8-11.1-24.9-24.9-24.9
		c-1.2,0-2.4,0-3.6,0.3C152.6,81.5,141.5,70.4,128,70.4L128,70.4z"/>
	<path id="path4142-5-3" style="fill:#808080;" d="M162.5,91.1c-13.8,0-24.6,11.1-24.9,24.6c-1.2-0.3-2.4-0.3-3.6-0.3
		c-13.8,0-24.9,11.1-24.9,24.9s11.1,24.9,24.9,24.9l0,0h57.9l0,0c13.2-0.6,23.7-11.4,23.7-24.9c0-13.8-11.1-24.9-24.9-24.9
		c-1.2,0-2.4,0-3.6,0.3C187.1,101.9,176,91.1,162.5,91.1L162.5,91.1z"/>
	<path id="path4142" style="fill:#C0C0C0;" d="M93.5,111.5c-13.8,0-24.6,11.1-24.9,24.6c-1.2-0.3-2.4-0.3-3.6-0.3
		c-13.8,0-24.9,11.1-24.9,24.9c0,13.8,11.1,24.9,24.9,24.9l0,0h57.9l0,0c13.2-0.6,23.7-11.4,23.7-24.9c0-13.8-11.1-24.9-24.9-24.9
		c-1.2,0-2.4,0-3.6,0.3C118.4,122.6,107.3,111.5,93.5,111.5L93.5,111.5z"/>
</g>
</svg>
