<?xml version="1.0" encoding="utf-8"?>
<!-- Generator: Adobe Illustrator 19.2.1, SVG Export Plug-In . SVG Version: 6.00 Build 0)  -->
<svg version="1.1"
	 id="svg2" xmlns:cc="http://creativecommons.org/ns#" xmlns:dc="http://purl.org/dc/elements/1.1/" xmlns:rdf="http://www.w3.org/1999/02/22-rdf-syntax-ns#" xmlns:svg="http://www.w3.org/2000/svg"
	 xmlns="http://www.w3.org/2000/svg" xmlns:xlink="http://www.w3.org/1999/xlink" x="0px" y="0px" viewBox="0 0 256 256"
	 style="enable-background:new 0 0 256 256;" xml:space="preserve">
<g id="weather">
	<path id="path4142" style="fill:#C0C0C0;" d="M128,46.1c-18.3,0-33.3,15-33.6,33.3c-1.8-0.3-3.3-0.3-5.1-0.3
		C71,78.8,56,93.8,56,112.4S71,146,89.6,146l0,0h78.3l0,0c18-0.6,32.1-15.6,32.1-33.6c0-18.6-15-33.6-33.6-33.6
		c-1.8,0-3.3,0-5.1,0.3C161.3,60.8,146.3,46.1,128,46.1L128,46.1z"/>
	
		<ellipse id="path4200-38" style="fill:none;stroke:#F5F5F5;stroke-linecap:round;stroke-miterlimit:1;" cx="68" cy="200" rx="1.5" ry="1.5"/>
	
		<ellipse id="path4200-9-1" style="fill:none;stroke:#F5F5F5;stroke-linecap:round;stroke-miterlimit:1;" cx="68" cy="176" rx="1.5" ry="1.5"/>
	
		<ellipse id="path4200-3-9" style="fill:none;stroke:#F5F5F5;stroke-linecap:round;stroke-miterlimit:1;" cx="68" cy="152" rx="1.5" ry="1.5"/>
	
		<ellipse id="path4200-5" style="fill:none;stroke:#F5F5F5;stroke-linecap:round;stroke-miterlimit:1;" cx="92" cy="200" rx="1.5" ry="1.5"/>
	
		<ellipse id="path4200-9-9" style="fill:none;stroke:#F5F5F5;stroke-linecap:round;stroke-miterlimit:1;" cx="92" cy="176" rx="1.5" ry="1.5"/>
	
		<ellipse id="path4200-3-46" style="fill:none;stroke:#F5F5F5;stroke-linecap:round;stroke-miterlimit:1;" cx="92" cy="152" rx="1.5" ry="1.5"/>
	
		<ellipse id="path4200-38-0" style="fill:none;stroke:#F5F5F5;stroke-linecap:round;stroke-miterlimit:1;" cx="116" cy="200" rx="1.5" ry="1.5"/>
	
		<ellipse id="path4200-9-1-8" style="fill:none;stroke:#F5F5F5;stroke-linecap:round;stroke-miterlimit:1;" cx="116" cy="176" rx="1.5" ry="1.5"/>
	
		<ellipse id="path4200-3-9-2" style="fill:none;stroke:#F5F5F5;stroke-linecap:round;stroke-miterlimit:1;" cx="116" cy="152" rx="1.5" ry="1.5"/>
	
		<ellipse id="path4200-93" style="fill:none;stroke:#F5F5F5;stroke-linecap:round;stroke-miterlimit:1;" cx="140" cy="200" rx="1.5" ry="1.5"/>
	
		<ellipse id="path4200-9-5" style="fill:none;stroke:#F5F5F5;stroke-linecap:round;stroke-miterlimit:1;" cx="140" cy="176" rx="1.5" ry="1.5"/>
	
		<ellipse id="path4200-3-1" style="fill:none;stroke:#F5F5F5;stroke-linecap:round;stroke-miterlimit:1;" cx="140" cy="152" rx="1.5" ry="1.5"/>
	
		<ellipse id="path4200-38-7" style="fill:none;stroke:#F5F5F5;stroke-linecap:round;stroke-miterlimit:1;" cx="164" cy="200" rx="1.5" ry="1.5"/>
	
		<ellipse id="path4200-9-1-7" style="fill:none;stroke:#F5F5F5;stroke-linecap:round;stroke-miterlimit:1;" cx="164" cy="176" rx="1.5" ry="1.5"/>
	
		<ellipse id="path4200-3-9-26" style="fill:none;stroke:#F5F5F5;stroke-linecap:round;stroke-miterlimit:1;" cx="164" cy="152" rx="1.5" ry="1.5"/>
	
		<ellipse id="path4200-5-6" style="fill:none;stroke:#F5F5F5;stroke-linecap:round;stroke-miterlimit:1;" cx="188" cy="200" rx="1.5" ry="1.5"/>
	
		<ellipse id="path4200-9-9-3" style="fill:none;stroke:#F5F5F5;stroke-linecap:round;stroke-miterlimit:1;" cx="188" cy="176" rx="1.5" ry="1.5"/>
	
		<ellipse id="path4200-3-46-2" style="fill:none;stroke:#F5F5F5;stroke-linecap:round;stroke-miterlimit:1;" cx="188" cy="152" rx="1.5" ry="1.5"/>
</g>
</svg>
