<?xml version="1.0" encoding="utf-8"?>
<!-- Generator: Adobe Illustrator 19.2.1, SVG Export Plug-In . SVG Version: 6.00 Build 0)  -->
<svg version="1.1"
	 id="svg2" xmlns:cc="http://creativecommons.org/ns#" xmlns:dc="http://purl.org/dc/elements/1.1/" xmlns:rdf="http://www.w3.org/1999/02/22-rdf-syntax-ns#" xmlns:svg="http://www.w3.org/2000/svg"
	 xmlns="http://www.w3.org/2000/svg" xmlns:xlink="http://www.w3.org/1999/xlink" x="0px" y="0px" viewBox="0 0 256 256"
	 style="enable-background:new 0 0 256 256;" xml:space="preserve">
<g id="weather">
	<g transform="translate(24,8) scale(0.5)">
		<ellipse id="path4601-4" style="fill:#FFC107;stroke:#FFC107;stroke-linecap:round;" cx="256" cy="192" rx="47.7" ry="47.7"/>
		<path id="path4603-2" style="fill:#FFC107;stroke:#FFC107;" d="M256,96v42.3"/>
		<path id="path4603-7-8" style="fill:#FFC107;stroke:#FFC107;" d="M352,192h-42.3"/>
		<path id="path4603-6-2" style="fill:#FFC107;stroke:#FFC107;" d="M256,288v-42.3"/>
		<path id="path4603-7-0-0" style="fill:#FFC107;stroke:#FFC107;" d="M160,192h42.3"/>
		<path id="path4603-0-2" style="fill:#FFC107;stroke:#FFC107;" d="M323.8,124.2l-30,30"/>
		<path id="path4603-7-1-3" style="fill:#FFC107;stroke:#FFC107;" d="M323.8,259.8l-30-30"/>
		<path id="path4603-6-5-5" style="fill:#FFC107;stroke:#FFC107;" d="M188.2,259.8l30-30"/>
		<path id="path4603-7-0-9-9" style="fill:#FFC107;stroke:#FFC107;" d="M188.2,124.2l30,30"/>
	</g>
	<path id="path4142" style="fill:#C0C0C0;" d="M128,76.1c-18.3,0-33.3,15-33.6,33.3c-1.8-0.3-3.3-0.3-5.1-0.3
		c-18.3,0-33.3,15-33.3,33.3C56,161,71,176,89.6,176l0,0h78.3l0,0c18-0.6,32.1-15.6,32.1-33.6c0-18.6-15-33.6-33.6-33.6
		c-1.8,0-3.3,0-5.1,0.3C161.3,91.1,146.3,76.1,128,76.1L128,76.1z"/>
</g>
</svg>
