<?xml version="1.0" encoding="utf-8"?>
<!-- Generator: Adobe Illustrator 19.2.1, SVG Export Plug-In . SVG Version: 6.00 Build 0)  -->
<svg version="1.1"
	 id="svg2" xmlns:cc="http://creativecommons.org/ns#" xmlns:dc="http://purl.org/dc/elements/1.1/" xmlns:rdf="http://www.w3.org/1999/02/22-rdf-syntax-ns#" xmlns:svg="http://www.w3.org/2000/svg"
	 xmlns="http://www.w3.org/2000/svg" xmlns:xlink="http://www.w3.org/1999/xlink" x="0px" y="0px" viewBox="0 0 256 256"
	 style="enable-background:new 0 0 256 256;" xml:space="preserve">
<g id="weather">
	<path style="fill:#EEEEEE;" d="M128,76.1c-18.4,0-33.4,14.9-33.5,33.3c-1.7-0.3-3.3-0.4-5-0.4C71,109,56,124,56,142.5
		C56,161,71,176,89.5,176c0,0,0.1,0,0.1,0h78.2v0c18-0.7,32.2-15.5,32.2-33.5c0-18.5-15-33.5-33.5-33.5c-1.7,0-3.3,0.1-5,0.4
		C161.4,91,146.4,76.1,128,76.1L128,76.1z"/>
</g>
</svg>
