<?xml version="1.0" encoding="utf-8"?>
<!-- Generator: Adobe Illustrator 19.2.1, SVG Export Plug-In . SVG Version: 6.00 Build 0)  -->
<svg version="1.1"
	 id="svg2" xmlns:cc="http://creativecommons.org/ns#" xmlns:dc="http://purl.org/dc/elements/1.1/" xmlns:rdf="http://www.w3.org/1999/02/22-rdf-syntax-ns#" xmlns:svg="http://www.w3.org/2000/svg"
	 xmlns="http://www.w3.org/2000/svg" xmlns:xlink="http://www.w3.org/1999/xlink" x="0px" y="0px" viewBox="0 0 256 256"
	 style="enable-background:new 0 0 256 256;" xml:space="preserve">
<g id="weather">
	<path id="path4136" style="fill:none;stroke:#EEEEEE;stroke-linecap:round;stroke-linejoin:round;" d="M57.2,73.4
		c1.5-3.3,4.2-5.7,7.5-6.9c3.3-1.2,7.2-0.9,10.2,0.9c3.3,1.8,5.4,4.8,8.1,7.5c1.2,1.2,2.7,2.4,4.2,3.3s3.6,1.2,5.4,1.2
		c1.8-0.3,3.6-1.2,4.8-2.4c1.2-1.2,2.7-2.7,3.6-3.9c1.2-1.5,2.4-2.7,3.9-3.9c1.5-1.2,3.3-1.8,5.1-1.8s3.6,0.9,5.1,2.1
		c1.5,1.2,2.7,2.7,3.9,3.9c1.2,1.5,2.4,3,3.9,3.9c1.5,1.2,3.3,1.8,5.1,1.8c1.8,0,3.6-0.9,5.1-1.8c1.5-1.2,2.7-2.7,3.9-3.9
		c1.2-1.5,2.4-3,3.9-3.9c1.5-0.9,3.3-2.1,5.1-2.1c1.8,0,3.6,0.6,5.1,1.8s2.7,2.4,3.9,3.9s2.4,2.7,3.6,3.9c1.5,1.2,3,2.1,4.8,2.4
		c1.8,0.3,3.6-0.3,5.4-1.2c1.5-0.9,3-2.1,4.2-3.3c2.7-2.7,4.8-5.7,8.1-7.5c3-1.8,6.9-2.1,10.2-0.9s6,3.6,7.5,6.9"/>
	<path id="path4136-7" style="fill:none;stroke:#EEEEEE;stroke-linecap:round;stroke-linejoin:round;" d="M57.2,95.6
		c1.5-3.3,4.2-5.7,7.5-6.9c3.3-1.2,7.2-0.9,10.2,0.9c3.3,1.8,5.4,4.8,8.1,7.5c1.2,1.2,2.7,2.4,4.2,3.3s3.6,1.2,5.4,1.2
		c1.8-0.3,3.6-1.2,4.8-2.4c1.5-1.2,2.7-2.7,3.6-3.9c0.9-1.2,2.4-2.7,3.9-3.9s3.3-1.8,5.1-1.8s3.6,0.9,5.1,2.1s2.7,2.7,3.9,3.9
		s2.4,3,3.9,3.9c1.5,1.2,3.3,1.8,5.1,1.8c1.8,0,3.6-0.9,5.1-1.8c1.5-1.2,2.7-2.7,3.9-3.9c1.2-1.5,2.4-3,3.9-3.9
		c1.5-1.2,3.3-2.1,5.1-2.1c1.8,0,3.6,0.6,5.1,1.8s2.7,2.4,3.9,3.9s2.4,2.7,3.6,3.9c1.2,1.2,3,2.1,4.8,2.4c1.8,0.3,3.6-0.3,5.4-1.2
		c1.5-0.9,3-2.1,4.2-3.3c2.7-2.7,4.8-5.7,8.1-7.5c3-1.8,6.9-2.1,10.2-0.9c3.3,1.2,6,3.6,7.5,6.9"/>
	<path id="path4136-7-0" style="fill:none;stroke:#EEEEEE;stroke-linecap:round;stroke-linejoin:round;" d="M57.2,117.8
		c1.5-3.3,4.2-5.7,7.5-6.9c3.3-1.2,7.2-0.9,10.2,0.9c3.3,1.8,5.4,4.8,8.1,7.5c1.2,1.2,2.7,2.4,4.2,3.3c1.5,0.9,3.6,1.2,5.4,1.2
		c1.8-0.3,3.6-1.2,4.8-2.4c1.5-1.2,2.7-2.7,3.6-3.9c0.9-1.2,2.4-2.7,3.9-3.9s3.3-1.8,5.1-1.8s3.6,0.9,5.1,2.1s2.7,2.7,3.9,3.9
		c1.2,1.2,2.4,3,3.9,3.9c1.5,1.2,3.3,1.8,5.1,1.8c1.8,0,3.6-0.9,5.1-1.8s2.7-2.7,3.9-3.9c1.2-1.5,2.4-3,3.9-3.9
		c1.5-1.2,3.3-2.1,5.1-2.1c1.8,0,3.6,0.6,5.1,1.8s2.7,2.4,3.9,3.9s2.4,2.7,3.6,3.9c1.2,1.2,3,2.1,4.8,2.4c1.8,0.3,3.6-0.3,5.4-1.2
		c1.5-0.9,3-2.1,4.2-3.3c2.7-2.7,4.8-5.7,8.1-7.5c3-1.8,6.9-2.1,10.2-0.9s6,3.6,7.5,6.9"/>
	<path id="path4136-5" style="fill:none;stroke:#EEEEEE;stroke-linecap:round;stroke-linejoin:round;" d="M57.2,140
		c1.5-3.3,4.2-6,7.5-7.2c3.3-1.2,7.2-0.9,10.2,0.9c3.3,1.8,5.4,4.8,8.1,7.5c1.2,1.2,2.7,2.4,4.2,3.3c1.5,0.9,3.6,1.2,5.4,1.2
		c1.8-0.3,3.6-1.2,4.8-2.4c1.2-1.2,2.7-2.7,3.6-3.9c0.9-1.2,2.4-2.7,3.9-3.9c1.5-1.2,3.3-1.8,5.1-1.8s3.6,0.9,5.1,2.1
		c1.5,1.2,2.7,2.7,3.9,3.9c1.2,1.5,2.4,3,3.9,3.9c1.5,1.2,3.3,1.8,5.1,1.8c1.8,0,3.6-0.9,5.1-1.8c1.5-1.2,2.7-2.7,3.9-3.9
		c1.2-1.5,2.4-3,3.9-3.9c1.5-0.9,3.3-2.1,5.1-2.1c1.8,0,3.6,0.6,5.1,1.8c1.5,1.2,2.7,2.4,3.9,3.9c1.2,1.5,2.4,2.7,3.6,3.9
		c1.2,1.2,3,2.1,4.8,2.4c1.8,0.3,3.6-0.3,5.4-1.2c1.5-0.9,3-2.1,4.2-3.3c2.7-2.7,4.8-5.7,8.1-7.5c3-1.8,6.9-2.1,10.2-0.9
		c3.3,1.2,6,3.6,7.5,6.9"/>
	<path id="path4136-7-4" style="fill:none;stroke:#EEEEEE;stroke-linecap:round;stroke-linejoin:round;" d="M57.2,161.9
		c1.5-3.3,4.2-5.7,7.5-6.9c3.3-1.2,7.2-0.9,10.2,0.9c3.3,1.8,5.4,4.8,8.1,7.5c1.2,1.2,2.7,2.4,4.2,3.3c1.5,0.9,3.6,1.2,5.4,1.2
		c1.8-0.3,3.6-1.2,4.8-2.4c1.2-1.2,2.7-2.7,3.6-3.9c0.9-1.2,2.4-2.7,3.9-3.9c1.5-1.2,3.3-1.8,5.1-1.8s3.6,0.9,5.1,2.1
		c1.5,1.2,2.7,2.7,3.9,3.9c1.2,1.5,2.4,3,3.9,3.9c1.5,0.9,3.3,1.8,5.1,1.8c1.8,0,3.6-0.9,5.1-1.8c1.5-0.9,2.7-2.7,3.9-3.9
		c1.2-1.5,2.4-3,3.9-3.9c1.5-0.9,3.3-2.1,5.1-2.1c1.8,0,3.6,0.6,5.1,1.8s2.7,2.4,3.9,3.9c1.2,1.5,2.4,2.7,3.6,3.9
		c1.2,1.2,3,2.1,4.8,2.4c1.8,0.3,3.6-0.3,5.4-1.2c1.5-0.9,3-2.1,4.2-3.3c2.7-2.7,4.8-5.7,8.1-7.5c3-1.8,6.9-2.1,10.2-0.9
		s6,3.6,7.5,6.9"/>
	<path id="path4136-7-0-4" style="fill:none;stroke:#EEEEEE;stroke-linecap:round;stroke-linejoin:round;" d="M57.2,184.1
		c1.5-3.3,4.2-5.7,7.5-6.9c3.3-1.2,7.2-0.9,10.2,0.9c3.3,1.8,5.4,4.8,8.1,7.5c1.2,1.2,2.7,2.4,4.2,3.3s3.6,1.2,5.4,1.2
		c1.8-0.3,3.6-1.2,4.8-2.4c1.5-1.2,2.7-2.7,3.6-3.9s2.4-2.7,3.9-3.9s3.3-1.8,5.1-1.8s3.6,0.9,5.1,2.1c1.5,1.2,2.7,2.7,3.9,3.9
		c1.2,1.2,2.4,3,3.9,3.9c1.5,0.9,3.3,1.8,5.1,1.8c1.8,0,3.6-0.9,5.1-1.8c1.5-0.9,2.7-2.7,3.9-3.9c1.2-1.5,2.4-3,3.9-3.9
		c1.5-1.2,3.3-2.1,5.1-2.1c1.8,0,3.6,0.6,5.1,1.8s2.7,2.4,3.9,3.9s2.4,2.7,3.6,3.9c1.2,1.2,3,2.1,4.8,2.4c1.8,0.3,3.6-0.3,5.4-1.2
		c1.5-0.9,3-2.1,4.2-3.3c2.7-2.7,4.8-5.7,8.1-7.5c3-1.8,6.9-2.1,10.2-0.9c3.3,1.2,6,3.6,7.5,6.9"/>
</g>
</svg>
