<?xml version="1.0" encoding="UTF-8" standalone="no"?>
<svg
   xmlns:dc="http://purl.org/dc/elements/1.1/"
   xmlns:cc="http://creativecommons.org/ns#"
   xmlns:rdf="http://www.w3.org/1999/02/22-rdf-syntax-ns#"
   xmlns:svg="http://www.w3.org/2000/svg"
   xmlns="http://www.w3.org/2000/svg"
   width="256"
   height="256"
   viewBox="0 0 256 256"
   id="svg2"
   version="1.1">
  <defs
     id="defs4" />
  <metadata
     id="metadata7">
    <rdf:RDF>
      <cc:Work
         rdf:about="">
        <dc:format>image/svg+xml</dc:format>
        <dc:type
           rdf:resource="http://purl.org/dc/dcmitype/StillImage" />
        <dc:title></dc:title>
      </cc:Work>
    </rdf:RDF>
  </metadata>
  <circle
     r="126.00001"
     cy="128"
     cx="128"
     id="clock-zone"
     style="opacity:1;fill:#eeeeee;fill-opacity:1;fill-rule:evenodd;stroke:#424242;stroke-width:4;stroke-miterlimit:4;stroke-dasharray:none;stroke-opacity:1" />
  <g
     id="clock-labels">
    <path
       id="path4154"
       style="font-style:normal;font-variant:normal;font-weight:normal;font-stretch:normal;font-size:30px;line-height:125%;font-family:'Lane - Narrow';-inkscape-font-specification:'Lane - Narrow';text-align:center;letter-spacing:0px;word-spacing:0px;text-anchor:middle;fill:#424242;fill-opacity:1;stroke:none;stroke-width:1px;stroke-linecap:butt;stroke-linejoin:miter;stroke-opacity:1"
       d="m 115.55023,15.42498 3.48,-3.99 0.03,18.9 0.99,0 0,-20.37 -0.99,0 -0.03,-0.03 -3.48,4.14 0,1.35 z" />
    <path
       id="path4156"
       style="font-style:normal;font-variant:normal;font-weight:normal;font-stretch:normal;font-size:30px;line-height:125%;font-family:'Lane - Narrow';-inkscape-font-specification:'Lane - Narrow';text-align:center;letter-spacing:0px;word-spacing:0px;text-anchor:middle;fill:#424242;fill-opacity:1;stroke:none;stroke-width:1px;stroke-linecap:butt;stroke-linejoin:miter;stroke-opacity:1"
       d="m 138.18476,18.45498 -10.77,11.88 12.96,0 0,-0.9 -10.74,0 9.54,-10.59 -0.03,0 q 1.35,-1.56 1.35,-3.84 0,-2.64 -1.62,-4.11 -1.59,-1.5 -4.23,-1.5 -2.88,0 -4.5,1.62 -1.59,1.59 -1.59,4.47 l 0,0.27 1.05,0 0,-0.33 q 0,-2.37 1.35,-3.72 1.35,-1.38 3.69,-1.38 2.19,0 3.48,1.29 1.29,1.29 1.29,3.48 0,1.95 -1.23,3.36 z" />
    <path
       id="path4151"
       style="font-style:normal;font-variant:normal;font-weight:normal;font-stretch:normal;font-size:30px;line-height:125%;font-family:'Lane - Narrow';-inkscape-font-specification:'Lane - Narrow';text-align:center;letter-spacing:0px;word-spacing:0px;text-anchor:middle;fill:#424242;fill-opacity:1;stroke:none;stroke-width:1px;stroke-linecap:butt;stroke-linejoin:miter;stroke-opacity:1"
       d="m 235.7075,137.64502 q -4.47,0 -5.16,-4.38 l -0.9,0.42 q 0.9,4.89 6.09,4.89 2.94,0 4.77,-1.65 1.89,-1.74 1.89,-4.68 0,-2.04 -1.08,-3.66 -1.14,-1.8 -3.03,-2.19 3.48,-0.33 3.48,-4.59 0,-2.34 -1.68,-3.57 -1.5,-1.08 -3.93,-1.08 -4.56,0 -5.73,3.69 l 0.87,0.42 q 0.96,-3.21 4.65,-3.21 4.77,0 4.77,3.78 0,4.32 -5.58,4.08 l -0.69,-0.03 0.15,0.96 q 0.24,-0.03 0.45,-0.03 0.24,0 0.48,0 2.61,0 4.2,1.44 1.62,1.5 1.62,4.11 0,2.4 -1.65,3.87 -1.59,1.41 -3.99,1.41 z" />
    <path
       id="path4148"
       style="font-style:normal;font-variant:normal;font-weight:normal;font-stretch:normal;font-size:30px;line-height:125%;font-family:'Lane - Narrow';-inkscape-font-specification:'Lane - Narrow';text-align:center;letter-spacing:0px;word-spacing:0px;text-anchor:middle;fill:#424242;fill-opacity:1;stroke:none;stroke-width:1px;stroke-linecap:butt;stroke-linejoin:miter;stroke-opacity:1"
       d="m 134.1725,230.16503 q -0.24,-2.37 -1.62,-3.69 -1.44,-1.35 -3.81,-1.35 -7.14,0 -7.14,11.22 0,10.26 6.78,10.26 2.85,0 4.53,-2.04 1.53,-1.92 1.53,-4.86 0,-3.03 -1.5,-4.89 -1.62,-2.01 -4.59,-2.01 -4.53,0 -5.7,4.8 -0.03,-0.24 -0.03,-0.6 0,-0.39 0,-0.9 0,-10.05 5.94,-10.05 4.05,0 4.65,4.11 l 0.96,0 z m -0.78,9.54 q 0,2.61 -1.29,4.2 -1.41,1.77 -3.93,1.77 -2.49,0 -3.78,-1.83 -1.2,-1.59 -1.2,-4.17 0,-2.52 1.26,-4.2 1.41,-1.77 3.87,-1.77 2.52,0 3.87,1.8 1.2,1.56 1.2,4.2 z" />
    <path
       id="path4145"
       style="font-style:normal;font-variant:normal;font-weight:normal;font-stretch:normal;font-size:30px;line-height:125%;font-family:'Lane - Narrow';-inkscape-font-specification:'Lane - Narrow';text-align:center;letter-spacing:0px;word-spacing:0px;text-anchor:middle;fill:#424242;fill-opacity:1;stroke:none;stroke-width:1px;stroke-linecap:butt;stroke-linejoin:miter;stroke-opacity:1"
       d="m 13.8425,133.595 q 0.21,2.4 1.62,3.69 1.47,1.32 3.81,1.32 7.17,0 7.17,-11.19 0,-10.29 -6.81,-10.29 -2.91,0 -4.53,2.07 -1.5,1.92 -1.5,4.86 0,3.03 1.5,4.89 1.56,2.01 4.56,2.01 2.19,0 3.75,-1.32 1.41,-1.26 1.95,-3.48 0.03,0.27 0.03,0.66 0,0.36 0,0.84 0,10.05 -5.94,10.05 -4.05,0 -4.65,-4.11 l -0.96,0 z m 0.78,-9.54 q 0,-2.64 1.29,-4.2 1.41,-1.77 3.93,-1.77 2.46,0 3.81,1.83 1.2,1.59 1.2,4.17 0,2.61 -1.29,4.17 -1.41,1.8 -3.87,1.8 -2.49,0 -3.84,-1.8 -1.23,-1.65 -1.23,-4.2 z" />
  </g>
</svg>
