<?xml version="1.0" encoding="UTF-8" standalone="no"?>
<svg
   xmlns:dc="http://purl.org/dc/elements/1.1/"
   xmlns:cc="http://creativecommons.org/ns#"
   xmlns:rdf="http://www.w3.org/1999/02/22-rdf-syntax-ns#"
   xmlns:svg="http://www.w3.org/2000/svg"
   xmlns="http://www.w3.org/2000/svg"
   width="256"
   height="256"
   viewBox="0 0 256 256"
   id="svg2"
   version="1.1">
  <defs
     id="defs4" />
  <metadata
     id="metadata7">
    <rdf:RDF>
      <cc:Work
         rdf:about="">
        <dc:format>image/svg+xml</dc:format>
        <dc:type
           rdf:resource="http://purl.org/dc/dcmitype/StillImage" />
        <dc:title></dc:title>
      </cc:Work>
    </rdf:RDF>
  </metadata>
  <circle
     r="126.00001"
     cy="128"
     cx="128"
     id="clock-zone"
     style="opacity:1;fill:#eeeeee;fill-opacity:1;fill-rule:evenodd;stroke:#424242;stroke-width:4;stroke-miterlimit:4;stroke-dasharray:none;stroke-opacity:1" />
  <g
     id="clock-labels">
    <path
       id="path4162"
       style="font-style:normal;font-variant:normal;font-weight:normal;font-stretch:normal;font-size:30px;line-height:125%;font-family:lane-narrow;-inkscape-font-specification:lane-narrow;letter-spacing:0px;word-spacing:0px;fill:#424242;fill-opacity:1;stroke:none;stroke-width:1px;stroke-linecap:butt;stroke-linejoin:miter;stroke-opacity:1"
       d="m 116.68483,30.78498 1.11,0 6.75,-10.17 6.84,10.17 1.14,0 -7.32,-11.07 6.9,-10.5 -1.11,0 -6.39,9.69 -6.42,-9.69 -1.17,0 6.99,10.53 -7.32,11.04 z" />
    <path
       id="path4164"
       style="font-style:normal;font-variant:normal;font-weight:normal;font-stretch:normal;font-size:30px;line-height:125%;font-family:lane-narrow;-inkscape-font-specification:lane-narrow;letter-spacing:0px;word-spacing:0px;fill:#424242;fill-opacity:1;stroke:none;stroke-width:1px;stroke-linecap:butt;stroke-linejoin:miter;stroke-opacity:1"
       d="m 135.14373,30.78498 0.99,0 0,-21.57 -0.99,0 0,21.57 z" />
    <path
       id="path4166"
       style="font-style:normal;font-variant:normal;font-weight:normal;font-stretch:normal;font-size:30px;line-height:125%;font-family:lane-narrow;-inkscape-font-specification:lane-narrow;letter-spacing:0px;word-spacing:0px;fill:#424242;fill-opacity:1;stroke:none;stroke-width:1px;stroke-linecap:butt;stroke-linejoin:miter;stroke-opacity:1"
       d="m 141.35467,30.78498 0.99,0 0,-21.57 -0.99,0 0,21.57 z" />
    <path
       id="path4155"
       style="font-style:normal;font-variant:normal;font-weight:normal;font-stretch:normal;font-size:30px;line-height:125%;font-family:lane-narrow;-inkscape-font-specification:lane-narrow;letter-spacing:0px;word-spacing:0px;fill:#424242;fill-opacity:1;stroke:none;stroke-width:1px;stroke-linecap:butt;stroke-linejoin:miter;stroke-opacity:1"
       d="m 230.80883,138.78498 0.99,0 0,-21.57 -0.99,0 0,21.57 z" />
    <path
       id="path4157"
       style="font-style:normal;font-variant:normal;font-weight:normal;font-stretch:normal;font-size:30px;line-height:125%;font-family:lane-narrow;-inkscape-font-specification:lane-narrow;letter-spacing:0px;word-spacing:0px;fill:#424242;fill-opacity:1;stroke:none;stroke-width:1px;stroke-linecap:butt;stroke-linejoin:miter;stroke-opacity:1"
       d="m 237.01976,138.78498 0.99,0 0,-21.57 -0.99,0 0,21.57 z" />
    <path
       id="path4159"
       style="font-style:normal;font-variant:normal;font-weight:normal;font-stretch:normal;font-size:30px;line-height:125%;font-family:lane-narrow;-inkscape-font-specification:lane-narrow;letter-spacing:0px;word-spacing:0px;fill:#424242;fill-opacity:1;stroke:none;stroke-width:1px;stroke-linecap:butt;stroke-linejoin:miter;stroke-opacity:1"
       d="m 243.2307,138.78498 0.99,0 0,-21.57 -0.99,0 0,21.57 z" />
    <path
       id="path4150"
       style="font-style:normal;font-variant:normal;font-weight:normal;font-stretch:normal;font-size:30px;line-height:125%;font-family:lane-narrow;-inkscape-font-specification:lane-narrow;letter-spacing:0px;word-spacing:0px;fill:#424242;fill-opacity:1;stroke:none;stroke-width:1px;stroke-linecap:butt;stroke-linejoin:miter;stroke-opacity:1"
       d="m 127.2439,246.78502 0.96,0 7.5,-21.57 -1.05,0 -6.9,20.1 -6.93,-20.1 -1.02,0 7.44,21.57 z" />
    <path
       id="path4152"
       style="font-style:normal;font-variant:normal;font-weight:normal;font-stretch:normal;font-size:30px;line-height:125%;font-family:lane-narrow;-inkscape-font-specification:lane-narrow;letter-spacing:0px;word-spacing:0px;fill:#424242;fill-opacity:1;stroke:none;stroke-width:1px;stroke-linecap:butt;stroke-linejoin:miter;stroke-opacity:1"
       d="m 138.23562,246.78502 0.99,0 0,-21.57 -0.99,0 0,21.57 z" />
    <path
       id="path4145"
       style="font-style:normal;font-variant:normal;font-weight:normal;font-stretch:normal;font-size:30px;line-height:125%;font-family:lane-narrow;-inkscape-font-specification:lane-narrow;letter-spacing:0px;word-spacing:0px;fill:#424242;fill-opacity:1;stroke:none;stroke-width:1px;stroke-linecap:butt;stroke-linejoin:miter;stroke-opacity:1"
       d="m 11.779296,138.78498 0.99,0 0,-21.57 -0.99,0 0,21.57 z" />
    <path
       id="path4147"
       style="font-style:normal;font-variant:normal;font-weight:normal;font-stretch:normal;font-size:30px;line-height:125%;font-family:lane-narrow;-inkscape-font-specification:lane-narrow;letter-spacing:0px;word-spacing:0px;fill:#424242;fill-opacity:1;stroke:none;stroke-width:1px;stroke-linecap:butt;stroke-linejoin:miter;stroke-opacity:1"
       d="m 15.410234,138.78498 1.109999,0 6.75,-10.17 6.84,10.17 1.14,0 -7.32,-11.07 6.9,-10.5 -1.11,0 -6.39,9.69 -6.42,-9.69 -1.169999,0 6.989999,10.53 -7.32,11.04 z" />
  </g>
</svg>
