<?xml version="1.0" encoding="UTF-8" standalone="no"?>
<svg
   xmlns:dc="http://purl.org/dc/elements/1.1/"
   xmlns:cc="http://creativecommons.org/ns#"
   xmlns:rdf="http://www.w3.org/1999/02/22-rdf-syntax-ns#"
   xmlns:svg="http://www.w3.org/2000/svg"
   xmlns="http://www.w3.org/2000/svg"
   version="1.1"
   id="svg2"
   viewBox="0 0 256 256"
   height="256"
   width="256">
  <defs
     id="defs4" />
  <metadata
     id="metadata7">
    <rdf:RDF>
      <cc:Work
         rdf:about="">
        <dc:format>image/svg+xml</dc:format>
        <dc:type
           rdf:resource="http://purl.org/dc/dcmitype/StillImage" />
        <dc:title></dc:title>
      </cc:Work>
    </rdf:RDF>
  </metadata>
  <g
     id="layer1">
    <path
       id="seconds"
       d="M 128,135.99998 128,19.999995"
       style="fill:none;fill-rule:evenodd;stroke:#000000;stroke-width:2;stroke-linecap:butt;stroke-linejoin:miter;stroke-miterlimit:4;stroke-dasharray:none;stroke-opacity:1" />
    <path
       id="minutes"
       d="M 127.99997,134 C 123.00479,134 121,122.39249 121,109 c 0,-13.39251 4.33578,-29.17438 6.99997,-37.50001 2.66419,-8.32562 4.99998,-13.638435 4.99998,-21.874985 0,-8.23656 -1.85068,-15.625 -4.99998,-15.625 -3.1493,0 -4.99998,7.60156 -4.99998,15.625 0,8.02344 2.45169,13.911555 4.99998,21.874985 2.54829,7.96344 7.01845,24.98094 6.99997,37.50001 -0.0185,12.51906 -2.00479,25 -6.99997,25 z"
       style="fill:none;fill-rule:evenodd;stroke:#000000;stroke-width:4;stroke-linecap:butt;stroke-linejoin:miter;stroke-miterlimit:4;stroke-dasharray:none;stroke-opacity:1" />
    <path
       id="hours"
       d="m 127.99997,134 c -4.9952,0 -7,-6.03591 -7,-13 0,-6.96411 4.3358,-15.17068 7,-19.50001 2.6642,-4.32932 5,-7.09198 5,-11.37499 0,-4.28302 -1.85069,-8.125 -5,-8.125 -3.14931,0 -5,3.95281 -5,8.125 0,4.17219 2.4517,7.23401 5,11.37499 2.5483,4.14099 7.01848,12.99009 7,19.50001 -0.0185,6.50991 -2.0048,13 -7,13 z"
       style="fill:none;fill-rule:evenodd;stroke:#000000;stroke-width:4;stroke-linecap:butt;stroke-linejoin:miter;stroke-miterlimit:4;stroke-dasharray:none;stroke-opacity:1" />
  </g>
</svg>
